<?xml version="1.0" encoding="utf-8"?>
<!-- Generator: Adobe Illustrator 16.0.3, SVG Export Plug-In . SVG Version: 6.00 Build 0)  -->
<!DOCTYPE svg PUBLIC "-//W3C//DTD SVG 1.1//EN" "http://www.w3.org/Graphics/SVG/1.1/DTD/svg11.dtd">
<svg version="1.1" id="Capa_1" xmlns="http://www.w3.org/2000/svg" xmlns:xlink="http://www.w3.org/1999/xlink" x="0px" y="0px"
	 width="960px" height="560px" viewBox="0 0 960 560" enable-background="new 0 0 960 560" xml:space="preserve">
<g>
	<path fill="#6AFF39" d="M232,180c-15.665-0.004-31.405-0.946-47,1c15.139,40.88,19.385,84.795,20.537,128.083
		c0.515,19.351,0.261,38.715,1.031,58.06"/>
	<g>
		<path fill="#542E71" d="M232,174c-15.683-0.041-31.381-0.83-47,1c-3.541,0.415-7.259,3.571-5.786,7.595
			c10.523,28.741,15.845,58.891,18.396,89.316c2.657,31.698,1.749,63.479,2.958,95.231c0.293,7.713,12.295,7.741,12,0
			c-1.209-31.759-0.412-63.52-2.958-95.231c-2.525-31.448-7.951-62.81-18.824-92.506c-1.929,2.532-3.857,5.063-5.786,7.595
			c15.619-1.83,31.317-1.041,47-1C239.739,186.02,239.737,174.02,232,174L232,174z"/>
	</g>
</g>
<g>
	<path fill="#6AFF39" d="M115,447c76-21,161-20,239-18c23,0,46,4,68,9"/>
	<g>
		<path fill="#542E71" d="M116.595,452.786c48.943-13.405,99.734-17.581,150.306-18.562c24.876-0.482,49.762-0.105,74.633,0.469
			c13.121,0.303,26.183,0.473,39.24,1.945c13.339,1.504,26.546,4.194,39.63,7.147c7.537,1.7,10.738-9.868,3.19-11.572
			c-12.915-2.914-25.891-5.358-39.016-7.106c-13.128-1.749-26.255-2.008-39.472-2.329c-26.063-0.634-52.136-1.017-78.206-0.554
			c-51.57,0.917-103.599,5.323-153.497,18.989C105.951,443.256,109.119,454.833,116.595,452.786L116.595,452.786z"/>
	</g>
</g>
<g>
	<path fill="#6AFF39" d="M105,455c1.738-4.128,3.432-8.275,5.076-12.442"/>
	<g>
		<path fill="#542E71" d="M110.786,456.595c1.735-4.13,3.429-8.276,5.076-12.442c1.205-3.046-1.294-6.584-4.19-7.381
			c-3.412-0.938-6.179,1.152-7.381,4.191c-1.647,4.165-3.34,8.313-5.076,12.442c-1.27,3.021,1.344,6.598,4.19,7.381
			C106.867,461.738,109.52,459.607,110.786,456.595L110.786,456.595z"/>
	</g>
</g>
<g>
	<path fill="#6AFF39" d="M338.097,105.597c-31.241,17.307-62.839,35.263-87.428,60.385"/>
	<g>
		<path fill="#542E71" d="M335.068,100.417c-31.453,17.433-63.166,35.536-88.643,61.323c-5.441,5.508,3.041,13.996,8.485,8.485
			c24.766-25.068,55.642-42.502,86.214-59.447C347.893,107.027,341.842,96.662,335.068,100.417L335.068,100.417z"/>
	</g>
</g>
<g>
	<path fill="#6AFF39" d="M271,178c-1,42-1,84-2,126"/>
	<g>
		<path fill="#542E71" d="M265,178c-0.984,41.995-1.016,84.005-2,126c-0.182,7.743,11.819,7.726,12,0
			c0.984-41.995,1.016-84.005,2-126C277.182,170.257,265.181,170.274,265,178L265,178z"/>
	</g>
</g>
<g>
	<path fill="#6AFF39" d="M438.846,94.667c-8.636,44.816-16.738,89.781-21.656,135.135c-4.897,45.171-6.632,90.816-2.213,136.093
		c2.54,26.015,7.127,51.859,14.167,77.105"/>
	<g>
		<path fill="#542E71" d="M433.06,93.071c-22.203,115.329-41.612,236.039-9.702,351.523c2.058,7.449,13.636,4.282,11.571-3.189
			c-31.321-113.353-12.089-231.952,9.702-345.144C446.087,88.702,434.522,85.478,433.06,93.071L433.06,93.071z"/>
	</g>
</g>
<g>
	<path fill="#6AFF39" d="M112.174,444.537c-0.061,1.154-0.119,2.309-0.174,3.463"/>
	<g>
		<path fill="#542E71" d="M106.174,444.537c-0.061,1.154-0.119,2.309-0.174,3.463c-0.157,3.27,2.848,6,6,6c3.389,0,5.843-2.734,6-6
			c0.055-1.154,0.113-2.309,0.174-3.463c0.172-3.269-2.859-6-6-6C108.773,438.537,106.346,441.272,106.174,444.537L106.174,444.537z
			"/>
	</g>
</g>
<g>
	<g>
		<path d="M123.254,568.742c-2.218,0.665-3.42-0.983-4.095-2.913c-0.635-1.813-3.533-1.034-2.893,0.797
			c1.208,3.451,3.89,6.178,7.786,5.009C125.9,571.08,125.112,568.185,123.254,568.742L123.254,568.742z"/>
	</g>
</g>
<g>
	<path fill="#6AFF39" d="M208.524,394.861c35.644,0.99,71.287-2.971,106.931-4.95"/>
	<g>
		<path fill="#542E71" d="M208.524,400.861c35.73,0.901,71.303-2.936,106.931-4.95c7.692-0.435,7.735-12.438,0-12
			c-35.627,2.015-71.201,5.852-106.931,4.95C200.781,388.666,200.8,400.666,208.524,400.861L208.524,400.861z"/>
	</g>
</g>
<g>
	<path fill="#6AFF39" d="M251.099,169.119c2.971,36.634,0.99,73.268-0.99,109.901c-0.99,10.892-0.99,22.772-1.98,34.653"/>
	<g>
		<path fill="#542E71" d="M245.099,169.119c1.902,24.168,1.744,48.403,0.833,72.613c-0.902,23.954-1.917,48.045-3.803,71.941
			c-0.609,7.72,11.396,7.661,12,0c1.886-23.899,2.861-47.985,3.803-71.941c0.951-24.203,1.069-48.452-0.833-72.613
			C256.496,161.457,244.491,161.398,245.099,169.119L245.099,169.119z"/>
	</g>
</g>
<g>
	<path fill="#6AFF39" d="M360.112,184.956c-15.74,35.547-21.854,74.81-27.935,112.925c-4.576,28.678-9.911,57.304-13.751,86.089"/>
	<g>
		<path fill="#542E71" d="M354.931,181.927c-13.212,30.172-19.955,62.279-25.353,94.628c-5.875,35.213-12.176,70.436-16.938,105.819
			c-0.436,3.238,0.723,6.427,4.19,7.381c2.828,0.777,6.944-0.943,7.381-4.191c4.602-34.189,10.787-68.18,16.346-102.223
			c5.288-32.386,11.503-65.139,24.735-95.358C368.365,180.968,358.029,174.853,354.931,181.927L354.931,181.927z"/>
	</g>
</g>
<g>
	<path fill="#6AFF39" d="M204.564,374.069c30.693,4.95,66.336,2.97,97.03-0.99"/>
	<g>
		<path fill="#542E71" d="M202.969,379.855c32.657,5.115,65.961,3.386,98.625-0.776c7.568-0.964,7.662-12.977,0-12
			c-31.454,4.008-63.96,6.135-95.435,1.204C198.591,367.099,195.341,378.66,202.969,379.855L202.969,379.855z"/>
	</g>
</g>
<g>
	<path fill="#6AFF39" d="M104.734,100.565c76.859,18.386,154.259,26.736,233.362,2.11"/>
	<g>
		<path fill="#542E71" d="M103.139,106.351c77.942,18.563,158.857,26.043,236.553,2.11c7.372-2.271,4.226-13.855-3.19-11.571
			c-75.683,23.313-154.252,15.971-230.172-2.11C98.806,92.987,95.613,104.558,103.139,106.351L103.139,106.351z"/>
	</g>
</g>
<g>
	<path fill="#6AFF39" d="M106.598,449.082c20.999-85.496,15-182.991,7.5-271.487c-3-25.499-7.5-52.497-12-77.996"/>
	<g>
		<path fill="#542E71" d="M112.383,450.677c13.9-57.134,15.972-116.451,14.041-174.987c-0.963-29.189-3.048-58.331-5.436-87.434
			c-2.485-30.288-7.835-60.345-13.105-90.252c-1.341-7.611-12.904-4.375-11.571,3.19c5.085,28.858,10.265,57.839,12.676,87.062
			c2.402,29.104,4.427,58.245,5.436,87.434c1.984,57.452,0.03,115.723-13.612,171.797
			C98.983,455.005,110.555,458.194,112.383,450.677L112.383,450.677z"/>
	</g>
</g>
<g>
	<path fill="#6AFF39" d="M303.334,268.334C290.001,266.666,292.001,286,303.667,287c10.667,0.667,14-20.334,1-19"/>
	<g>
		<path fill="#542E71" d="M303.334,263.834c-7.996-0.754-14.18,5.078-13.685,13.136c0.479,7.816,6.731,14.37,14.662,14.543
			c16.26,0.357,18.468-29.278,0.356-28.014c-5.756,0.402-5.795,9.404,0,9c3.359-0.234,4.094,1.275,3.905,4.444
			c-0.135,2.259-1.813,5.422-4.261,5.57c-2.936,0.178-5.348-2.844-5.662-5.543c-0.399-3.423,1.329-4.453,4.685-4.136
			C309.113,273.379,309.06,264.374,303.334,263.834L303.334,263.834z"/>
	</g>
</g>
<g>
	<path fill="#6AFF39" d="M306.667,216.667c-18.666-0.333-13.333,27.333,5.334,23c13.333-3.333,11.666-25-3.667-23.333"/>
	<g>
		<path fill="#542E71" d="M306.667,212.167c-9.059,0.089-16.253,5.958-16.103,15.381c0.139,8.697,7.154,16.116,15.723,16.961
			c10.162,1.001,17.994-5.68,19.17-15.609c1.189-10.04-7.508-17.791-17.123-17.066c-5.75,0.434-5.792,9.437,0,9
			c4.974-0.375,8.171,2.156,8.17,7.271c-0.001,5.282-4.646,7.657-9.337,7.49c-3.81-0.135-7.085-3.675-7.552-7.341
			c-0.608-4.774,2.594-7.044,7.052-7.087C312.467,221.11,312.473,212.109,306.667,212.167L306.667,212.167z"/>
	</g>
</g>
<g>
	<path fill="#6AFF39" d="M300.001,311.667c-7,1.666-9.334,11.333-0.667,12c7.667,0.333,8.333-12,1-11.334"/>
	<g>
		<path fill="#542E71" d="M299.204,308.774c-4.618,1.246-8.134,5.017-8.462,9.858c-0.375,5.535,5.548,8.573,10.35,7.9
			c9.712-1.36,9.813-17.772-0.758-17.2c-3.848,0.208-3.868,6.209,0,6c1.723-0.093,2.122,0.622,2.142,2.157
			c0.02,1.573-0.938,2.846-2.529,3.194c-1.369,0.3-3.417-0.702-3.23-2.044c0.297-2.149,2.1-3.546,4.082-4.081
			C304.53,313.553,302.944,307.765,299.204,308.774L299.204,308.774z"/>
	</g>
</g>
<text transform="matrix(1 0 0 1 448 269.396)"><tspan x="0" y="0" fill="#6AFF39" stroke="#542E71" stroke-width="4" stroke-miterlimit="10" font-family="'Lacquer-Regular'" font-size="100" letter-spacing="3">  </tspan><tspan x="86.999" y="0" fill="#6AFF39" stroke="#542E71" stroke-width="4" stroke-miterlimit="10" font-family="'Lacquer-Regular'" font-size="200" letter-spacing="7">La</tspan><tspan x="0" y="120" fill="#6AFF39" stroke="#542E71" stroke-width="4" stroke-miterlimit="10" font-family="'Lacquer-Regular'" font-size="100" letter-spacing="3">Juguería</tspan></text>
<g>
	<path fill="#6AFF39" d="M248.333,316.167c6.167-3,15.333-6.667,19.667-12"/>
	<g>
		<path fill="#542E71" d="M251.362,321.348c7.311-3.517,15.431-6.655,20.881-12.938c5.044-5.815-3.406-14.341-8.485-8.484
			c-4.723,5.444-12.11,8.011-18.452,11.062C238.333,314.34,244.423,324.686,251.362,321.348L251.362,321.348z"/>
	</g>
</g>
<g>
	<path fill="#6AFF39" d="M272.5,177.25c22.5,0,46,1.5,68.5-0.75c7.75-0.75,16-0.25,23.75-2"/>
	<g>
		<path fill="#542E71" d="M272.5,183.25c15.886,0.028,31.765,0.682,47.652,0.412c7.575-0.129,15.1-0.674,22.645-1.314
			c7.897-0.67,15.738-0.473,23.548-2.062c7.58-1.542,4.364-13.108-3.19-11.571c-7.289,1.482-14.771,1.159-22.155,1.786
			c-7.584,0.644-15.147,1.065-22.759,1.194c-15.247,0.26-30.494-0.417-45.741-0.444C264.761,171.236,264.762,183.236,272.5,183.25
			L272.5,183.25z"/>
	</g>
</g>
<g>
	<path fill="#6AFF39" d="M365,176.25c0.5,3-1.75,5-3.5,7.25"/>
	<g>
		<path fill="#542E71" d="M359,176.25c0.048,0.289,0.072,0.579,0.071,0.871c0.173-0.906,0.191-1.034,0.054-0.384
			c-0.202,0.619-0.141,0.514,0.183-0.315c-0.12,0.242-0.251,0.477-0.394,0.706c-0.146,0.233-0.3,0.461-0.462,0.684
			c0.518-0.655,0.572-0.727,0.162-0.214c-0.448,0.557-0.912,1.1-1.355,1.66c-2.028,2.562-2.511,5.974,0,8.485
			c2.111,2.111,6.452,2.568,8.485,0c2.675-3.379,5.837-6.807,5.257-11.493c-0.401-3.245-2.425-6-6-6
			C362.034,170.25,358.597,172.996,359,176.25L359,176.25z"/>
	</g>
</g>
<g>
	<path fill="#6AFF39" d="M375.716,101.271c21.913,0.05,42.417-8.464,64.127-10.992"/>
	<g>
		<path fill="#542E71" d="M375.716,107.271c21.966-0.185,42.524-8.311,64.127-10.992c7.575-0.94,7.667-12.952,0-12
			c-21.537,2.673-42.294,10.809-64.127,10.992C367.981,95.336,367.975,107.336,375.716,107.271L375.716,107.271z"/>
	</g>
</g>
<g>
	<path fill="#6AFF39" d="M288.067,158.93c13.698-10.077,28.361-18.741,42.94-27.479c7.268-4.356,14.523-8.737,21.636-13.34
		c7.08-4.581,13.441-9.994,20.357-14.777"/>
	<g>
		<path fill="#542E71" d="M291.095,164.11c13.745-10.033,28.355-18.741,42.94-27.479c7.269-4.355,14.511-8.753,21.636-13.34
			c7.054-4.541,13.495-9.962,20.357-14.777c6.283-4.408,0.295-14.818-6.057-10.361c-6.374,4.472-12.419,9.39-18.851,13.783
			c-7.482,5.112-15.375,9.675-23.143,14.334c-14.581,8.746-29.194,17.445-42.94,27.479
			C278.856,158.262,284.833,168.682,291.095,164.11L291.095,164.11z"/>
	</g>
</g>
</svg>
